<svg xmlns="http://www.w3.org/2000/svg" viewBox="0 0 600 200">
  <defs>
    <g id="K">
      <rect x="40" y="20" width="120" height="140" rx="18" fill="#f7f3ea" stroke="#111" stroke-width="8"/>
      <path d="M100 40 v40 M80 60 h40" stroke="#111" stroke-width="10" stroke-linecap="round"/>
      <rect x="70" y="110" width="60" height="20" fill="#111"/>
    </g>
    <g id="Q">
      <rect x="240" y="20" width="120" height="140" rx="18" fill="#f7f3ea" stroke="#111" stroke-width="8"/>
      <circle cx="270" cy="50" r="8" fill="#111"/>
      <circle cx="300" cy="44" r="8" fill="#111"/>
      <circle cx="330" cy="50" r="8" fill="#111"/>
      <rect x="270" y="110" width="60" height="20" fill="#111"/>
    </g>
    <g id="R">
      <rect x="440" y="20" width="120" height="140" rx="18" fill="#f7f3ea" stroke="#111" stroke-width="8"/>
      <rect x="470" y="40" width="60" height="20" fill="#111"/>
      <rect x="470" y="110" width="60" height="20" fill="#111"/>
    </g>

    <g id="B">
      <rect x="40" y="20" width="120" height="140" rx="18" fill="#0f1115" stroke="#f7f3ea" stroke-width="8"/>
      <circle cx="100" cy="60" r="16" fill="#f7f3ea"/>
      <rect x="70" y="110" width="60" height="20" fill="#f7f3ea"/>
    </g>
    <g id="N">
      <rect x="240" y="20" width="120" height="140" rx="18" fill="#0f1115" stroke="#f7f3ea" stroke-width="8"/>
      <path d="M270 120 L330 60" stroke="#f7f3ea" stroke-width="10" stroke-linecap="round"/>
      <rect x="270" y="110" width="60" height="20" fill="#f7f3ea"/>
    </g>
    <g id="P">
      <rect x="440" y="20" width="120" height="140" rx="18" fill="#0f1115" stroke="#f7f3ea" stroke-width="8"/>
      <circle cx="500" cy="60" r="16" fill="#f7f3ea"/>
      <rect x="470" y="110" width="60" height="20" fill="#f7f3ea"/>
    </g>
  </defs>
</svg>
